<svg version="1.1" xmlns="http://www.w3.org/2000/svg" xmlns:xlink="http://www.w3.org/1999/xlink" width="67.000000pt" height="67.000000pt" viewBox="0,0,256,256"><g fill="#FF859B" fill-rule="#FFFFFF" stroke="none" stroke-width="1" stroke-linecap="butt" stroke-linejoin="miter" stroke-miterlimit="10" stroke-dasharray="" stroke-dashoffset="0" font-family="none" font-weight="none" font-size="none" text-anchor="none" style="mix-blend-mode: normal"><g transform="translate(1.93697,1.06202) scale(3.8209,3.8209)"><g transform="translate(0,67) scale(0.1,-0.1)"><path d="M250,647c-166,-47 -270,-222 -228,-382c13,-49 14,-50 48,-48c121,8 191,17 196,24c3,5 -9,26 -26,48c-20,25 -34,55 -37,82c-4,24 -13,50 -22,56c-13,10 -14,14 -2,22c9,6 10,11 2,15c-6,4 -11,14 -11,22c0,11 4,12 20,4c15,-8 31,-5 74,15c30,14 69,25 86,25c69,0 135,-51 147,-113c6,-28 8,-29 49,-23c41,5 44,4 44,-18c0,-13 -6,-29 -14,-35c-8,-7 -12,-21 -8,-33c4,-18 2,-20 -20,-15c-15,4 -40,4 -57,1c-38,-8 -42,-41 -10,-70c26,-23 49,-74 49,-110c0,-23 2,-25 16,-13c32,26 73,97 89,154c43,146 -31,307 -171,371c-63,29 -154,38 -214,21z"></path><path d="M388,418c-6,-17 1,-38 13,-38c5,0 9,7 9,15c0,8 5,15 11,15c5,0 7,5 4,10c-9,14 -32,12 -37,-2z"></path><path d="M94,131c5,-8 56,-3 56,5c0,2 -14,4 -31,4c-16,0 -28,-4 -25,-9z"></path><path d="M376,74c-10,-14 -33,-32 -50,-40l-31,-13l31,-1c33,0 57,20 68,58c9,28 5,27 -18,-4z"></path></g></g></g></svg>